<?xml version="1.0" encoding="UTF-8"?><svg id="Camada_1" xmlns="http://www.w3.org/2000/svg" viewBox="0 0 550.57 297.28"><defs><style>.cls-1{fill:none;}.cls-1,.cls-2{stroke:#0d6efd;stroke-miterlimit:10;}.cls-2{fill:#e7e7e7;}</style></defs><path class="cls-2" d="M317.32,98.32c-.72,5.4-2.64,12.69-8.35,18.05-6.16,5.78-14.49,7.21-14.21,8.41.21.89,4.98.89,9.72,0,13.74-2.58,28.18-12.78,35.52-28.23,1.74-3.66,3.93-9.41,4.72-17.06"/><path class="cls-2" d="M181.5,273.27c-1.38-1.24-4.08-4.01-5.46-8.44-2.1-6.71.32-12.41,1-13.87,1.07-1.89,2.24-3.83,3.54-5.8,3.03-4.63,6.18-8.63,9.21-12.05.71-1.1,2.45-4.1,2.36-8.28-.08-3.81-11.35-33.3-6.92-58.05,5.59-31.22,16.27-54.29,23.78-65.3,1.66-2.41,3.32-4.83,4.97-7.24-.05-1.26-.63-11.53-9.53-17.93-10.1-7.27-21.58-2.85-22.31-2.55,2.45-3.48,8.07-10.43,17.85-14.66,15.97-6.9,30.73-1.25,33.78,0,1.1.37,4.69,1.43,8.75-.1,2.75-1.03,4.47-2.78,5.27-3.73,9.72-8.16,29.85-22.76,59.28-28.68,20.17-4.06,37.32-2.55,48.44-.64,1.98-.09,10.87-.27,18.49,6.37,6,5.24,7.77,11.71,8.29,14.02,18.61,2.27,16.76,7.02,17.21,8,2.97-.36,5.09,1.53,5.08,3.14,0,1.13-1.07,2.28-2.53,2.89-.7.81-2.55,3.93-9.15,4.57-5.13.5-10.99.89-17.3,2.27-11.23,2.46-22.58,7.15-34.11,14.19-11.56,7.06-11.72,9.67-23.08,16.29-9.42,5.49-17.85,8.66-23.45,10.48-15.86,14.06-37.19,33.67-60.12,56.98-7.52,7.65-17.48,18.01-23.57,34.7-3.54,9.71-4.6,18.36-4.92,24.33,1.67.28,9.35,1.74,14.65,8.86,6.28,8.43,4.11,17.93,3.78,19.24-1.82-4.34-4.13-6.1-5.84-6.92-3.45-1.65-6.03-.21-10.05-1.62-3.45-1.21-5.7-3.73-7-5.54.34,6.53-1.41,10.47-2.94,12.78-4.22,6.39-10.82,6.63-14.92,13.73-1.9,3.29-2.39,6.54-2.54,8.54Z"/><path class="cls-2" d="M346.91,44.21c.2,1.65,1.46,3.49,2.62,3.36,1.22-.14,2.31-2.49,1.68-4.3-.49-1.4-2.07-2.66-3.18-2.24-1.04.4-1.25,2.14-1.12,3.18Z"/><path class="cls-2" d="M358.31,44.4c9.93-.13,18.72.97,23.97,1.94"/><path class="cls-2" d="M354.58,53.93c.48-.93,1.46-1.55,1.46-1.55,0,0,9.4,8.12,43.46,1.96"/><path class="cls-2" d="M293.27,84.4c-1.42.21-3.29.74-4.49,2.24-1.71,2.15-.99,5.01-.93,6.54.34,9.6-23.39,17.42-22.62,20,.37,1.24,6.31,1.08,13.46-.56,5.15-1.18,25.84-6.54,38.13-25.05,2.51-3.78,6.88-10.53,4.3-14.95-1.06-1.82-2.99-2.71-4.49-3.18"/><path class="cls-1" d="M262.24,116.74c-18.81,18.04-30.92,33.53-38.13,43.74-4.83,6.84-9.13,13.66-12.15,23.18-3.24,10.23-3.64,19.29-3.43,25.39"/><polygon class="cls-2" points="168.28 20.32 148.67 .71 20.33 129.04 20.32 129.04 .71 148.65 148.63 296.57 168.24 276.96 39.95 148.66 168.28 20.32"/><polygon class="cls-2" points="382.28 20.32 401.9 .71 530.24 129.04 530.24 129.04 549.86 148.65 401.94 296.57 382.33 276.96 510.62 148.66 382.28 20.32"/></svg>