<svg width="133" height="50" viewBox="0 0 133 50" fill="none" xmlns="http://www.w3.org/2000/svg">
<g clip-path="url(#clip0)">
<path d="M64.3302 26.1984C64.3302 25.6336 64.084 25.0978 63.6713 24.7212V10.0652C63.6713 9.32658 63.0703 8.72556 62.3317 8.72556H59.638C58.8994 8.72556 58.2984 9.32658 58.2984 10.0652V11.2889L58.2911 11.2817V4.69225C58.2911 3.95366 57.6901 3.35264 56.9515 3.35264H54.2578C53.5192 3.35264 52.9182 3.95366 52.9182 4.69225V19.4786H52.911V4.68501C52.911 4.32295 52.7662 3.98986 52.5272 3.75091C53.1427 3.41057 53.5699 2.75163 53.5699 1.99855C53.5554 0.8979 52.6575 0 51.5569 0C50.9921 0 50.4562 0.246198 50.0797 0.658943H48.8632C48.1246 0.658943 47.5236 1.25996 47.5236 1.99855V8.59522L47.5163 8.58798V4.68501C47.5163 3.94642 46.9153 3.3454 46.1767 3.3454H43.483C42.7444 3.3454 42.1434 3.94642 42.1434 4.68501V27.538H42.1362V18.1245C42.1362 17.386 41.5352 16.7849 40.7966 16.7849H38.1029C37.3643 16.7849 36.7633 17.386 36.7633 18.1245C36.7633 18.8631 37.3643 19.4642 38.1029 19.4642H39.4497V20.7096C39.0877 20.3693 38.6025 20.1521 38.0667 20.1521C36.966 20.1521 36.0681 21.05 36.0681 22.1506C36.0681 22.7371 36.3288 23.2802 36.756 23.6568V34.2505C36.756 34.6126 36.8936 34.9457 37.147 35.1991L42.5344 40.5793C42.7879 40.8327 43.1282 40.9703 43.483 40.9703H46.1767C46.5388 40.9703 46.8719 40.8255 47.1181 40.5865C47.4584 41.2093 48.1173 41.6293 48.8704 41.6293C49.4352 41.6293 49.9711 41.3831 50.3476 40.9703H56.9515C57.3063 40.9703 57.6467 40.8327 57.9001 40.5793L63.2875 35.1991C63.541 34.9457 63.6785 34.6054 63.6785 34.2505V28.8704C63.6785 28.5083 63.5337 28.1752 63.2948 27.9363C63.9103 27.6104 64.3302 26.9515 64.3302 26.1984Z" fill="#F6F6F6"/>
<path d="M46.1696 39.1601H43.6787L38.5737 34.0624V23.1789C38.943 22.9907 39.2036 22.6141 39.2036 22.1652C39.2036 21.5352 38.6968 21.0283 38.0668 21.0283C37.4368 21.0283 36.9299 21.5352 36.9299 22.1652C36.9299 22.6359 37.2123 23.0341 37.6178 23.2079V34.2651C37.6178 34.3954 37.6685 34.5185 37.7627 34.6054L43.1501 39.9856C43.237 40.0725 43.3601 40.1232 43.4904 40.1232H46.1841C46.452 40.1232 46.6693 39.9059 46.6693 39.638C46.6548 39.3701 46.4375 39.1601 46.1696 39.1601ZM38.0668 22.73C37.7554 22.73 37.4947 22.4765 37.4947 22.1579C37.4947 21.8466 37.7482 21.5859 38.0668 21.5859C38.3854 21.5859 38.6388 21.8393 38.6388 22.1579C38.6316 22.4765 38.3782 22.73 38.0668 22.73Z" fill="#FCBC03"/>
<path d="M62.3319 28.3997C62.064 28.3997 61.8468 28.6169 61.8468 28.8848V34.0622L56.7418 39.16H49.8917C49.7106 38.7762 49.3196 38.501 48.8634 38.501C48.2334 38.501 47.7266 39.0079 47.7266 39.6379C47.7266 40.2679 48.2334 40.7748 48.8634 40.7748C49.3196 40.7748 49.7106 40.5068 49.8917 40.1158H56.9445C57.0749 40.1158 57.198 40.0651 57.2848 39.9782L62.6722 34.5981C62.7591 34.5112 62.8171 34.3881 62.8171 34.2577V28.8776C62.8098 28.6169 62.5998 28.3997 62.3319 28.3997ZM48.8634 40.2099C48.5521 40.2099 48.2914 39.9565 48.2914 39.6379C48.2914 39.3265 48.5448 39.0658 48.8634 39.0658C49.1748 39.0658 49.4355 39.3193 49.4355 39.6379C49.4355 39.9565 49.182 40.2099 48.8634 40.2099Z" fill="#FCBC03"/>
<path d="M52.0421 4.68486C52.0421 4.41694 51.8249 4.19971 51.5569 4.19971C51.289 4.19971 51.0718 4.41694 51.0718 4.68486V20.8181C51.0718 21.086 51.289 21.3033 51.5569 21.3033H54.2506C54.5186 21.3033 54.7358 21.086 54.7358 20.8181V5.17002H56.4664V11.7232C56.0826 11.9043 55.8075 12.2953 55.8075 12.7515C55.8075 13.3815 56.3144 13.8883 56.9443 13.8883C57.5743 13.8883 58.0812 13.3815 58.0812 12.7515C58.0812 12.2953 57.8133 11.9043 57.4222 11.7232V4.68486C57.4222 4.41694 57.205 4.19971 56.9371 4.19971H54.2434C53.9755 4.19971 53.7582 4.41694 53.7582 4.68486V20.3329H52.0276V4.68486H52.0421ZM56.9443 12.1867C57.2557 12.1867 57.5164 12.4401 57.5164 12.7587C57.5164 13.0701 57.2629 13.3308 56.9443 13.3308C56.6257 13.3308 56.3723 13.0773 56.3723 12.7587C56.3723 12.4401 56.633 12.1867 56.9443 12.1867Z" fill="#FCBC03"/>
<path d="M46.6546 12.7516C46.6546 12.4837 46.4374 12.2664 46.1695 12.2664C45.9016 12.2664 45.6843 12.4837 45.6843 12.7516V20.8182C45.6843 21.0861 45.9016 21.3034 46.1695 21.3034H48.8632C49.1311 21.3034 49.3483 21.0861 49.3483 20.8182V2.48367H50.5286C50.7097 2.86745 51.1007 3.14261 51.5569 3.14261C52.1869 3.14261 52.6937 2.63573 52.6937 2.00575C52.6937 1.37578 52.1869 0.868896 51.5569 0.868896C51.1007 0.868896 50.7097 1.13682 50.5286 1.52784H48.8632C48.5953 1.52784 48.378 1.74507 48.378 2.013V20.3475H46.6474V12.7516H46.6546ZM51.5569 1.42646C51.8682 1.42646 52.1289 1.6799 52.1289 1.99851C52.1289 2.30988 51.8755 2.57056 51.5569 2.57056C51.2455 2.57056 50.9848 2.31712 50.9848 1.99851C50.9921 1.68714 51.2455 1.42646 51.5569 1.42646Z" fill="#FCBC03"/>
<path d="M38.0958 18.6096H40.3044V28.8847C40.3044 29.1526 40.5216 29.3699 40.7895 29.3699H43.4832C43.7512 29.3699 43.9684 29.1526 43.9684 28.8847V5.17002H45.699V9.03678C45.3152 9.21781 45.0401 9.60883 45.0401 10.065C45.0401 10.695 45.547 11.2019 46.1769 11.2019C46.8069 11.2019 47.3138 10.695 47.3138 10.065C47.3138 9.60883 47.0459 9.21781 46.6549 9.03678V4.68486C46.6549 4.41694 46.4376 4.19971 46.1697 4.19971H43.476C43.2081 4.19971 42.9908 4.41694 42.9908 4.68486V28.3996H41.2602V18.1316C41.2602 17.8637 41.043 17.6465 40.7751 17.6465H38.0813C37.8134 17.6465 37.5962 17.8637 37.5962 18.1316C37.5962 18.3996 37.8279 18.6096 38.0958 18.6096ZM46.1697 9.49297C46.4811 9.49297 46.7417 9.74641 46.7417 10.065C46.7417 10.3764 46.4883 10.6371 46.1697 10.6371C45.8583 10.6371 45.5976 10.3836 45.5976 10.065C45.6049 9.75365 45.8583 9.49297 46.1697 9.49297Z" fill="#FCBC03"/>
<path d="M54.7359 34.265C54.7359 33.9971 54.5187 33.7799 54.2507 33.7799H43.599C43.4035 33.7799 43.2297 33.8957 43.1573 34.0768C43.0849 34.2578 43.1211 34.4678 43.2587 34.6054L45.9524 37.2918C46.0393 37.3787 46.1624 37.4294 46.2927 37.4294H54.258C54.3883 37.4294 54.5114 37.3787 54.5983 37.2918L56.5679 35.3295C56.691 35.3729 56.8213 35.4019 56.9517 35.4019C57.5817 35.4019 58.0885 34.895 58.0885 34.265C58.0885 33.6351 57.5817 33.1282 56.9517 33.1282C56.3217 33.1282 55.8148 33.6351 55.8148 34.265C55.8148 34.4026 55.8438 34.5257 55.8872 34.6488L54.0625 36.4736H46.4882L44.7576 34.7502H54.2507C54.5187 34.7429 54.7359 34.5257 54.7359 34.265ZM56.9444 33.693C57.2558 33.693 57.5165 33.9464 57.5165 34.265C57.5165 34.5764 57.2631 34.8371 56.9444 34.8371C56.6258 34.8371 56.3724 34.5836 56.3724 34.265C56.3724 33.9464 56.6331 33.693 56.9444 33.693Z" fill="#FCBC03"/>
<path d="M60.116 31.5713V23.5047C60.116 23.2368 59.8988 23.0195 59.6309 23.0195H46.1696C45.9017 23.0195 45.6845 23.2368 45.6845 23.5047V28.8848C45.6845 29.1528 45.9017 29.37 46.1696 29.37H56.9444C57.2123 29.37 57.4296 29.1528 57.4296 28.8848V26.1984C57.4296 25.9305 57.2123 25.7132 56.9444 25.7132H49.8915C49.7105 25.3294 49.3195 25.0543 48.8633 25.0543C48.2333 25.0543 47.7265 25.5612 47.7265 26.1911C47.7265 26.8211 48.2333 27.328 48.8633 27.328C49.3195 27.328 49.7105 27.0601 49.8915 26.6691H56.4593V28.3924H46.6548V23.9826H59.153V31.0861H41.8177C41.6367 30.7024 41.2456 30.4272 40.7894 30.4272C40.1595 30.4272 39.6526 30.9341 39.6526 31.5641C39.6526 32.194 40.1595 32.7009 40.7894 32.7009C41.2456 32.7009 41.6367 32.433 41.8177 32.042H59.6381C59.906 32.0565 60.116 31.8392 60.116 31.5713ZM48.8633 26.7632C48.5519 26.7632 48.2913 26.5098 48.2913 26.1911C48.2913 25.8798 48.5447 25.6191 48.8633 25.6191C49.1747 25.6191 49.4354 25.8725 49.4354 26.1911C49.4354 26.5098 49.1819 26.7632 48.8633 26.7632ZM40.7894 32.1434C40.4781 32.1434 40.2174 31.8899 40.2174 31.5713C40.2174 31.2599 40.4708 30.9993 40.7894 30.9993C41.1008 30.9993 41.3615 31.2527 41.3615 31.5713C41.3543 31.8899 41.1008 32.1434 40.7894 32.1434Z" fill="#FCBC03"/>
<path d="M62.8098 25.1702V10.0652C62.8098 9.79731 62.5925 9.58008 62.3246 9.58008H59.6309C59.363 9.58008 59.1458 9.79731 59.1458 10.0652V20.3404H57.4151V15.4454C57.4151 15.1775 57.1979 14.9602 56.93 14.9602C56.6621 14.9602 56.4448 15.1775 56.4448 15.4454V20.8256C56.4448 21.0935 56.6621 21.3107 56.93 21.3107H59.6237C59.8916 21.3107 60.1088 21.0935 60.1088 20.8256V10.5504H61.8395V25.1702C61.4557 25.3513 61.1805 25.7423 61.1805 26.1985C61.1805 26.8284 61.6874 27.3353 62.3174 27.3353C62.9474 27.3353 63.4542 26.8284 63.4542 26.1985C63.4687 25.7423 63.2008 25.3513 62.8098 25.1702ZM62.3319 26.7633C62.0205 26.7633 61.7598 26.5098 61.7598 26.1912C61.7598 25.8799 62.0133 25.6192 62.3319 25.6192C62.6505 25.6192 62.9039 25.8726 62.9039 26.1912C62.8967 26.5098 62.6432 26.7633 62.3319 26.7633Z" fill="#FCBC03"/>
<path d="M10.8546 35.4887C10.6953 35.4887 10.5287 35.4598 10.3767 35.4018L7.24126 34.2215C6.95885 34.3663 6.65473 34.4388 6.32887 34.4388C5.22822 34.4388 4.33032 33.5409 4.33032 32.4402C4.33032 31.3395 5.22822 30.4417 6.32887 30.4417C7.1616 30.4417 7.88572 30.963 8.1826 31.7088L10.9415 32.7516L15.3513 31.7088C15.4527 31.6871 15.5541 31.6726 15.6627 31.6726C16.2854 31.6726 16.8213 32.0999 16.9661 32.7081C17.0457 33.0557 16.9878 33.4178 16.7996 33.7219C16.6113 34.026 16.3144 34.2432 15.9668 34.3229L11.1587 35.4598C11.0573 35.4815 10.956 35.4887 10.8546 35.4887Z" fill="#F6F6F6"/>
<path d="M16.1333 32.8965C16.0682 32.6358 15.8147 32.4765 15.554 32.5417L10.8907 33.6496L7.46569 32.3534C7.42225 31.7669 6.93709 31.3035 6.33608 31.3035C5.7061 31.3035 5.19922 31.8103 5.19922 32.4403C5.19922 33.0703 5.7061 33.5772 6.33608 33.5772C6.64744 33.5772 6.92261 33.4541 7.1326 33.2513L10.6952 34.5982C10.7532 34.6199 10.8111 34.6271 10.869 34.6271C10.9052 34.6271 10.9414 34.6199 10.9776 34.6127L15.7857 33.4758C16.0319 33.4179 16.1913 33.1572 16.1333 32.8965ZM6.32883 33.0124C6.01747 33.0124 5.75679 32.7589 5.75679 32.4403C5.75679 32.129 6.01023 31.8683 6.32883 31.8683C6.6402 31.8683 6.90088 32.1217 6.90088 32.4403C6.90088 32.7589 6.64744 33.0124 6.32883 33.0124Z" fill="#FCBC03"/>
<path d="M9.39174 38.9645C9.34106 38.9645 9.29037 38.9572 9.23968 38.95L3.21506 37.8493C2.86749 38.1173 2.4475 38.2621 1.99855 38.2621C0.8979 38.2693 0 37.3714 0 36.2708C0 35.1701 0.8979 34.2722 1.99855 34.2722C2.70094 34.2722 3.33092 34.6415 3.69298 35.2136L9.3483 36.2418L15.6915 34.7574C15.7567 34.7429 15.8219 34.7356 15.887 34.7356C16.2781 34.7356 16.6329 35.0036 16.727 35.4018L16.9442 36.3432C17.0529 36.8066 16.7632 37.27 16.2998 37.3787L9.58725 38.95C9.52209 38.9572 9.45691 38.9645 9.39174 38.9645Z" fill="#F6F6F6"/>
<path d="M15.887 35.5974L9.36998 37.118L3.09916 35.9739C2.96882 35.4888 2.52712 35.1267 2.00575 35.1267C1.37578 35.1267 0.868896 35.6336 0.868896 36.2636C0.868896 36.8935 1.37578 37.4004 2.00575 37.4004C2.38953 37.4004 2.72263 37.2122 2.93262 36.9225L9.39895 38.1028L16.1115 36.5315L15.887 35.5974ZM1.99851 36.8356C1.68714 36.8356 1.42646 36.5822 1.42646 36.2636C1.42646 35.9522 1.6799 35.6915 1.99851 35.6915C2.31712 35.6915 2.57056 35.945 2.57056 36.2636C2.57056 36.5822 2.30988 36.8356 1.99851 36.8356Z" fill="#575756"/>
<path d="M4.47511 47.5381C3.37446 47.5381 2.47656 46.6402 2.47656 45.5395C2.47656 44.4389 3.37446 43.541 4.47511 43.541C4.68511 43.541 4.88786 43.5699 5.08337 43.6351L9.62356 40.9993C9.69597 40.9559 9.76838 40.9269 9.84803 40.9052L16.6764 39.2035C16.7416 39.189 16.814 39.1746 16.8864 39.1746C17.0385 39.1746 17.1978 39.218 17.3281 39.2977C17.5236 39.4135 17.6612 39.609 17.7191 39.8263L17.9509 40.7604C18.0667 41.2238 17.7843 41.6872 17.3209 41.8031L10.7459 43.4468L6.43022 45.9523C6.23471 46.8646 5.43094 47.5381 4.47511 47.5381Z" fill="#F6F6F6"/>
<path d="M17.1108 40.9776L16.879 40.0435L10.0507 41.7451L5.12669 44.6054C4.94567 44.475 4.72119 44.4026 4.47499 44.4026C3.84501 44.4026 3.33813 44.9095 3.33813 45.5395C3.33813 46.1694 3.84501 46.6763 4.47499 46.6763C5.10497 46.6763 5.61185 46.1694 5.61185 45.5395C5.61185 45.5033 5.60461 45.4743 5.60461 45.4381L10.42 42.643L17.1108 40.9776ZM4.47499 46.1115C4.16362 46.1115 3.90294 45.8581 3.90294 45.5395C3.90294 45.2281 4.15638 44.9674 4.47499 44.9674C4.78636 44.9674 5.04704 45.2209 5.04704 45.5395C5.04704 45.8581 4.78636 46.1115 4.47499 46.1115Z" fill="#575756"/>
<path d="M10.239 50C9.13838 50 8.24048 49.1021 8.24048 48.0015C8.24048 46.9008 9.13114 46.0102 10.2318 46.0029L11.9552 44.084C12.1362 43.8885 12.3679 43.7437 12.6286 43.6785L17.1543 42.5344C17.2629 42.5055 17.3715 42.491 17.4802 42.491C18.0957 42.491 18.6315 42.911 18.7836 43.5047C18.9646 44.2216 18.5301 44.953 17.8132 45.134L13.6858 46.1767L12.2376 47.7915C12.2448 47.8566 12.2448 47.9291 12.2448 47.9942C12.2376 49.1094 11.3397 50 10.239 50Z" fill="#F6F6F6"/>
<path d="M17.9364 43.722C17.8712 43.4613 17.6105 43.3093 17.3499 43.3744L12.8242 44.5185C12.73 44.5402 12.6504 44.5909 12.5852 44.6633L10.5577 46.9226C10.4563 46.8936 10.3477 46.8719 10.2318 46.8719C9.60185 46.8719 9.09497 47.3788 9.09497 48.0088C9.09497 48.6387 9.60185 49.1456 10.2318 49.1456C10.8618 49.1456 11.3687 48.6387 11.3687 48.0088C11.3687 47.8495 11.3397 47.6974 11.2746 47.5598L13.2007 45.4164L17.5816 44.3085C17.8495 44.2434 18.0016 43.9827 17.9364 43.722ZM10.2391 48.5736C9.9277 48.5736 9.66702 48.3201 9.66702 48.0015C9.66702 47.6829 9.92046 47.4295 10.2391 47.4295C10.5504 47.4295 10.8111 47.6829 10.8111 48.0015C10.8111 48.3201 10.5504 48.5736 10.2391 48.5736Z" fill="#FCBC03"/>
<path d="M58.0667 27.4946C58.0667 27.7336 58.016 27.9653 57.9218 28.1898L57.8494 28.3491C57.6322 28.8487 57.1905 29.218 56.6619 29.3483L41.9045 32.9037C41.8031 32.9255 41.7307 33.0196 41.7379 33.121L41.7452 33.3092L54.6706 31.3831C56.4085 31.1731 56.9805 32.0782 57.0602 32.7372C57.1977 33.8451 56.6691 34.4171 55.554 34.7213C52.2665 35.6192 42.6648 37.5381 41.4193 37.7843C41.3324 37.7987 41.2745 37.8639 41.2528 37.9436L41.1948 38.1753L52.0638 37.7191C52.1072 37.7191 52.1579 37.7191 52.2014 37.7336C53.0413 37.9508 53.541 38.827 53.2803 39.6669C53.1717 40.0073 52.9979 40.2173 52.7444 40.3766C52.491 40.5286 52.1579 40.6228 51.7307 40.7242C51.7162 40.7242 51.7017 40.7314 51.6872 40.7314C51.1731 40.7966 41.6293 42.0058 39.6597 42.1796C39.6452 42.1796 39.638 42.1796 39.6235 42.1869L26.7705 44.3954C26.756 44.3954 26.7343 44.4026 26.7198 44.4026C25.8581 44.4751 24.9964 44.3158 24.2216 43.9392L23.3165 43.5047C23.302 43.4975 23.2875 43.4903 23.273 43.483C23.2224 43.4468 23.0703 43.3527 22.8748 43.1644C22.5924 42.9037 22.1579 43.1065 22.1362 43.483C22.1362 43.4903 22.1362 43.4975 22.1362 43.5047C21.9769 43.3165 21.8393 43.1137 21.7307 42.882C20.2607 39.8552 19.4063 36.6112 19.189 33.2513L19.1746 33.0124C19.4135 33.6785 19.6235 34.3954 19.8118 34.9168C19.3266 32.5634 20.2462 30.688 20.2462 30.688L21.8465 27.3715C22.1579 26.7343 22.5634 26.1405 23.0486 25.6264C23.0703 25.5974 23.0993 25.5757 23.1282 25.5612C23.4541 25.344 25.554 23.8958 26.8067 21.8321C27.4005 20.8545 28.5373 20.4056 29.2397 19.9421C29.6308 19.6814 30 19.399 30.3549 19.0877C30.7097 18.7835 31.0428 18.4504 31.3541 18.1029L32.6503 16.6474C33.2658 15.9523 34.4244 16.0898 34.7937 16.9443C34.9675 17.3353 35.0544 17.7553 35.0544 18.1825C35.0544 18.5373 34.9964 18.8922 34.8733 19.2325C34.5982 20 34.2434 20.7386 33.8306 21.441C33.4179 22.1434 32.9327 22.8024 32.3969 23.4179L31.919 23.9609C31.5207 24.4099 31.4628 25.0471 31.7234 25.554C31.8176 25.7278 32.0276 25.8074 32.2231 25.7567L37.5453 24.3302L52.0131 20.2752C52.672 20.0942 53.3744 20.2462 53.8958 20.688C54.2434 20.9848 54.4389 21.4121 54.4389 21.861C54.4389 21.9696 54.4316 22.071 54.4027 22.1796C54.3447 22.4475 54.2216 22.6937 54.0406 22.8893C53.8596 23.0848 53.6351 23.2368 53.3672 23.3237L40.6228 28.0956C40.4997 28.1391 40.4418 28.2839 40.5069 28.3998C40.5431 28.4722 40.6228 28.5156 40.7024 28.5156C40.7169 28.5156 40.7242 28.5156 40.7386 28.5156L50.7604 26.7777L56.184 25.7567C56.785 25.7061 57.3715 25.974 57.7263 26.4664C57.9508 26.7633 58.0667 27.1253 58.0667 27.4946Z" fill="#0060AC"/>
<path d="M19.8046 34.9168C19.6163 34.4027 19.4064 33.6858 19.1674 33.0124L19.0805 31.6873C19.066 31.4628 19.0805 31.2383 19.1167 31.0211C19.1167 31.0066 19.1239 30.9921 19.1239 30.9776L19.5294 30.8763L20.2463 30.688C20.2391 30.688 19.3122 32.5634 19.8046 34.9168Z" fill="#0060AC"/>
<path d="M23.2877 43.4975L22.8387 43.6061L22.3319 43.7292C22.3029 43.7075 22.2812 43.6785 22.2594 43.6568C22.216 43.6133 22.1725 43.5626 22.1291 43.5119C22.1798 42.8964 21.3977 41.6148 21.2312 40.6807C22.1074 42.8168 23.2877 43.4975 23.2877 43.4975Z" fill="#0060AC"/>
<path d="M22.795 44.0769L19.5365 44.8444C19.2758 44.9313 19.0007 44.982 18.7255 44.982C17.7697 44.982 16.879 44.4244 16.459 43.5627C15.1918 40.9487 14.4532 38.1464 14.265 35.2499L14.1781 33.8958C14.0984 32.6866 14.895 31.5932 16.0753 31.2963L19.2614 30.478C19.1962 30.6446 19.1527 30.8111 19.1238 30.9849C19.1238 30.9994 19.1165 31.0139 19.1165 31.0284C19.0803 31.2456 19.0658 31.4701 19.0803 31.6945L19.1672 33.0197L19.1817 33.2586C19.3989 36.6185 20.2534 39.8553 21.7233 42.8893C21.832 43.1138 21.9695 43.3238 22.1288 43.5121C22.1723 43.5627 22.2157 43.6062 22.2592 43.6569C22.2809 43.6786 22.3099 43.7076 22.3316 43.7293C22.4764 43.8524 22.6285 43.9755 22.795 44.0769Z" fill="#575756"/>
<path d="M19.5222 30.8689L19.1167 30.9703C19.1457 30.7965 19.1964 30.6299 19.2543 30.4634L19.5222 30.8689Z" fill="#282828"/>
<path d="M22.8384 43.5989L22.795 44.0768C22.6284 43.9754 22.4764 43.8523 22.3315 43.7147L22.8384 43.5989Z" fill="#282828"/>
<path d="M74.4317 29.9146H79.1674V32.3187H74.4317V40.197H70.0508V22.3477H80.1739V24.7879H74.4317V29.9146Z" fill="#0060AC"/>
<path d="M93.599 40.197H82.5056V22.3477H93.1356V24.4403H86.8865V30.0667H92.4332V32.1594H86.8865V38.0971H93.599V40.197Z" fill="#0060AC"/>
<path d="M101.868 22C103.889 22 105.431 22.4562 106.503 23.3613C107.574 24.2665 108.226 25.664 108.465 27.5539L104.975 28.0608C104.924 26.6923 104.627 25.6278 104.084 24.882C103.541 24.1289 102.802 23.7596 101.876 23.7596C100.941 23.7596 100.217 24.0058 99.7032 24.4982C99.1891 24.9906 98.9284 25.6423 98.9284 26.4605C98.9284 27.2788 99.1601 27.8653 99.6235 28.2274C100.087 28.5894 101.021 28.937 102.419 29.2773L103.896 29.6684C105.576 30.0594 106.778 30.6676 107.502 31.5076C108.226 32.3476 108.588 33.6003 108.588 35.273C108.588 36.9457 108.016 38.2419 106.879 39.1687C105.742 40.1028 104.091 40.5663 101.933 40.5663C99.7756 40.5663 98.1391 40.1173 97.024 39.2049C95.9088 38.2998 95.2499 36.9022 95.0471 35.0123L98.5374 34.4692C98.7473 37.3657 99.8697 38.8139 101.912 38.8139C102.897 38.8139 103.664 38.5677 104.222 38.0753C104.779 37.5829 105.054 36.924 105.054 36.0985C105.054 35.273 104.808 34.6792 104.316 34.3316C103.823 33.9841 102.839 33.6365 101.369 33.3034L100.087 33.0282C98.4287 32.6662 97.2412 32.0579 96.5171 31.2035C95.793 30.349 95.4309 29.1108 95.4309 27.4815C95.4237 23.8248 97.5743 22 101.868 22Z" fill="#0060AC"/>
<path d="M113.548 35.2658L112.071 40.1898H109.624L115.054 22.3477H120.138L125.648 40.1898H121.419L119.942 35.2658H113.548ZM116.771 24.52L114.171 33.1731H119.327L116.771 24.52Z" fill="#0060AC"/>
<path d="M127.828 40.197V22.3477H132.209V40.1898H127.828V40.197Z" fill="#0060AC"/>
</g>
<defs>
<clipPath id="clip0">
<rect width="132.209" height="50" fill="white"/>
</clipPath>
</defs>
</svg>
