<?xml version="1.0" encoding="UTF-8"?><svg id="Camada_1" xmlns="http://www.w3.org/2000/svg" viewBox="0 0 329.21 369.65"><defs><style>.cls-1{fill:#fefefe;}.cls-1,.cls-2,.cls-3,.cls-4,.cls-5,.cls-6,.cls-7,.cls-8,.cls-9,.cls-10,.cls-11,.cls-12,.cls-13,.cls-14,.cls-15,.cls-16,.cls-17{stroke-width:0px;}.cls-2{fill:#d4dee8;}.cls-3{fill:#647a95;}.cls-4{fill:#667996;}.cls-5{fill:#9babc5;}.cls-6{fill:#889bb7;}.cls-7{fill:#eaeef4;}.cls-8{fill:#576e7f;}.cls-9{fill:#40a9e0;}.cls-18{letter-spacing:-.02em;}.cls-10{fill:#41596a;}.cls-11{fill:#d4e2f1;}.cls-12{fill:#284961;}.cls-19{letter-spacing:0em;}.cls-20{font-size:49.64px;}.cls-20,.cls-21{fill:#231f20;font-family:ItauDisplay-Heavy, 'Itau Display';font-weight:800;}.cls-21{font-size:72.53px;}.cls-13{fill:#b4c8e0;}.cls-14{fill:#69778a;}.cls-15{fill:#a8b5ca;}.cls-16{fill:#4f7a97;}.cls-17{fill:#496174;}.cls-22{letter-spacing:-.02em;}</style></defs><circle class="cls-9" cx="179.73" cy="171.28" r="149.48"/><path class="cls-15" d="M61.79,304.06c2.57-5.8.86-11.95,1.42-17.91.11-1.15-.18-2.36.06-3.47,2.03-9.43-2.14-17.44-6.19-25.28-1.13-2.18-.09-4.66-1.89-6.41.32-4.9-2.23-9.11-3.29-13.68-1.2-4.98-2.5-9.94-3.57-14.96-3.86-18.12-6.65-36.38-6.86-54.97.94-.23,1.98-.32,1.92-1.71-.16-3.39.96-6.81-.29-10.17,1.27-20.75,3.75-41.31,9.91-61.37-2.44,3.25-4.36,6.58-5.98,10.2-1.69,3.76-1.09,8.27-4.04,11.54-2.33-4.92-2.85-10.63-6.47-14.99,2.41.31,2.8,2.62,4,4.1,1.06,1.31,2.18,1.92,2.92.03,1.09-2.82,3.28-5.45,2.04-8.82,1.21-1.34,4.29-1.4,3.05-4.43.68-.49,1.19-1.06,1.11-1.97v.03c6.81-11.1,13.84-22.06,21.68-32.48.65.27.78-.05.7-.61,0,0-.03.08-.03.08,5.23-4.74,10.47-9.47,15.7-14.21,9.49-5.69,17.13-14.14,27.55-18.42,10.03-5.71,20.84-9.64,31.52-13.87.89-1.05,4.37.3,2.79-3.02.34-.15.67-.29,1.01-.44.42.04.84.08,1.27.12,0,0-.07-.11-.07-.11,3.37,2.94,5.7,1.12,7.81-1.71.99-1.09,2.2-1.41,3.61-1.05-.33.84-.39,1.93.75,1.72,8.09-1.53,16.29.06,24.39-.96.6-.02,1.31-.27,1.43.7.91-.13,1.82-.26,2.72-.39,1.69.62,3.34,1.57,5.08,1.81,7.36,1,13.69,4.14,19.36,8.8,1.52,1.25,3.24,2.36,2.94,4.73-.61-.57-1.34-1.33-2.16-.83-3.79,2.34-7.99,1.89-12.12,1.98-9.45.22-18.93-1.39-28.28-.91-22.16,1.15-43.13,7.64-62.44,18.43-11.39,6.37-21.81,14.28-31.02,23.92-22.16,23.21-35.47,50.02-37.22,82.41-1.35,25,.85,49.73,5.2,74.24,3.1,17.49,6.15,35.15,15.27,50.92.45.78.56,1.97.36,2.87-.94,4.28-.09,8.67-.69,12.9-.88,6.16.84,12.69-2.55,18.49-1.07.44-1.79-.12-2.45-.86ZM115.47,28.22c11.4-3.77,22.62-8.06,34.36-10.65.78-.17,1.8-.6,1.43-1.59-.53-1.43-1.91-1.02-3.01-.84-11.89,1.92-22.44,7.21-32.78,13.08ZM177.11,11.76c-1.31.81-2.04,1.75-.56,3.06,1.59,1.41,10.61,1.49,12.01.14.52-.5.74-.92.28-1.64-1.21-1.93-9.21-3.03-11.74-1.56ZM168.3,12.5c-2.32-1.33-4.68-1.06-6.94.17-.87.48-2.6,1.32-1.13,2.46,1.95,1.52,4.37,1.01,6.5-.05.94-.46,2.23-.94,1.57-2.58ZM59.78,81.68c2.8-4.31,5.59-8.63,8.39-12.94-5.2,2.8-7.55,7.4-8.39,12.94Z"/><path class="cls-6" d="M64.24,304.92c3.39-5.8,1.67-12.33,2.55-18.49.61-4.23-.25-8.61.69-12.9.2-.9.09-2.09-.36-2.87-9.12-15.76-12.17-33.43-15.27-50.92-4.35-24.51-6.55-49.24-5.2-74.24,1.75-32.38,15.06-59.19,37.22-82.41,9.21-9.65,19.63-17.56,31.02-23.92,19.31-10.79,40.28-17.28,62.44-18.43,9.35-.48,18.82,1.13,28.28.91,4.13-.09,8.33.36,12.12-1.98.81-.5,1.54.25,2.15.83,1.23,3.99-1.13,6.03-4.32,7.16-4.55,1.61-9.31,2.27-14.15,2.69-5.45.47-10.97-.11-16.36,1.16-.22.02-.42.08-.62.19-6.09-1.47-11.92.87-17.88,1.22-.77-.94-1.65-.71-2.69-.46-5.63,1.37-11.32,2.49-16.91,3.98-18.88,5.04-35.57,14.12-50.58,26.7-12.9,10.81-23.35,23.27-30.93,38.37-10.62,21.16-14.48,43.77-14.71,67.03-.27,27.96,4.48,55.2,13.52,81.72,5.56,16.33,12.57,32.04,19.06,47.98-.57.31-1.14.63-1.7.94-2.55-4.33-5.11-8.65-7.66-12.98.04-.13.16-.31.11-.36-.16-.18-.37-.31-.55-.47-.43-.91-.86-1.82-1.28-2.73-.58-2.14-.74-4.47-3.1-6.58-.13,3.09.33,5.38,1.89,7.42.89,5.8-1.2,11.27-1.89,16.9-.42.5-1.16.97-1.21,1.51-.93,10.24-3.47,20.26-3.93,30.58-.2,4.42.66,9.19-2.04,13.3-.54-.93-1.09-1.86-1.63-2.79-1.65-3.16-.45-6.51-.68-9.77-.13-.31-.25-.62-.38-.93,1.73-1.52-1.06-3.97,1.12-5.4,2.14.49,2.06-1.25,2.17-2.41.6-6.53,1.9-13,1.72-19.59Z"/><path class="cls-3" d="M208.35,70.23c-2.83,1.78-5.66,3.56-8.49,5.34-6.33,2.09-10.87,6.82-15.81,10.89-6.89,5.67-14.22,10.83-20.41,17.32-5.51,2.8-9.92,7.09-14.77,10.79-2.89-2.31-3.88,1.14-5.75,1.91-2.04,1.66-4.11,3.29-6.12,4.99-7.54,6.37-14.48,13.25-18.73,22.38.06.61.4,1.42.14,1.81-4.16,6.18-8.67,12.15-12.56,18.5-4.75,7.74-9.76,15.43-11.92,24.46-2.22,2.44-1.84,6.4-4.86,8.37-.7-1.36,0-2.62.38-3.84,4.42-14.26,8.9-28.51,13.33-42.77.72-2.31,2.07-4.73-.41-6.88.31-.21.61-.42.92-.63,3.87-2.15,6.68-5.29,9.22-8.9,3.52-5,5.44-10.61,7.14-16.34,2.58-8.73,6.61-17,8.25-26.03,0,0-.04.04-.04.04.28-.16.52-.37.71-.63.82-1.95,1.78-3.86,2.42-5.87.44-1.37,2.58-2.81.21-4.36.44-1.11.89-2.22,1.33-3.33,1.8-.7.92-3.15,2.58-3.94,2.3,4.58,1.55,9.43,1.03,14.17-.96,8.81-2.23,17.59-3.45,26.94,1.21-.69,1.91-1.05,2.58-1.47,17.73-10.9,33.45-24.33,48.75-38.34,2.51-2.3,4.6-5.77,8.11-6.32,7.66-1.2,15.41-1.76,23.13-2.58-1.19,3.2-5.18,1.93-6.89,4.3Z"/><path class="cls-6" d="M71.32,57.35c-7.83,10.42-14.86,21.38-21.68,32.48-.54-.89-.91-1.91-.34-2.82,3.16-5.12,2.97-11.14,4.62-16.64,1.46-4.86-1.37-6.86-5.08-7.96-1.94-.58-4.15-.73-6.35-.33-14.92,2.76-25.91,11.52-35.24,22.85-.84,1.02-1.49,2.26-.51,3.62-.14.49-.28.98-.42,1.47-4.07,1.34-5.5.44-3.21-3.73.19-.35-.02-.91-.05-1.38,7.25-11.18,17.38-18.89,29.34-24.41.33.99.53,1.7,2.01,1.09,3.79-1.58,7.7-2.9,11.56-4.32,4.8-1.21,9.61-2.41,14.41-3.62,2.23-.24,4.5-.32,6.69-.75,3.3-.65,4.94.51,4.92,3.9,0,0,.03-.08.03-.08-.25.18-.49.38-.7.61Z"/><path class="cls-12" d="M163.63,103.78c6.2-6.49,13.53-11.65,20.41-17.32,4.95-4.08,9.48-8.81,15.81-10.89-4.12,2.88-6.37,7.13-8.29,11.58-5.15,11.94-12.28,22.31-23.15,29.8-1.92,1.32-3.73,2.79-5.71,4.01-1.34.83-3.12,2.21-4.41.77-1.24-1.38.56-2.59,1.45-3.74,2.73-3.55,3.87-7.65,4.14-12.05.5-.79.2-1.49-.27-2.16Z"/><path class="cls-11" d="M185.04,31.52c5.39-1.27,10.91-.69,16.36-1.16,4.84-.42,9.6-1.08,14.15-2.69,3.2-1.13,5.55-3.17,4.32-7.16.31-2.38-1.42-3.48-2.94-4.73-5.67-4.66-12-7.8-19.36-8.8-1.74-.24-3.39-1.19-5.08-1.81,0,0,.04-.14.04-.14.09-.44.17-.87.26-1.31.03-.18.06-.36.09-.54.32-.15.62-.12.89.1.71.93,1.57,1.01,2.54.45,1.98.34,3.97.67,5.95,1.01,6.44,2.76,12.98,5.28,18.97,8.99,6.02,1.45,9.29,5.91,12.05,10.95-3.96,8.72-11.92,11.01-20.3,12.64-.62-.81-1.42-1.77-2.41-1.52-5.49,1.38-10.86.04-16.04-1.16-3.16-.73-7.3.72-9.5-3.11Z"/><path class="cls-4" d="M212.99,37.32c8.38-1.63,16.34-3.92,20.3-12.64.55.84,1.1,1.68,1.65,2.52-3.27,5.03,1.34,4.7,3.92,5.75,0,0,.28-.22.28-.22.3.61.59,1.21.89,1.82-.11.5-.22.99-.32,1.49-1.79,1.19-3.66,2.26-5.34,3.58-11.46,8.97-24.38,8.36-37.61,5.87-1.04-2.15-1.4-4.16,1.12-5.59h-.02c2.23,3.71,4.01.61,5.93-.39,3.07-.73,6.14-1.46,9.21-2.18Z"/><path class="cls-6" d="M130.23,300.45c.52.65,1.05,1.29,1.57,1.94,1.15,1.92,2.3,3.83,3.53,5.88-3.77,1.7-8.07.78-11.26,3.42-3.5-.01-5.52,2.85-8.28,4.26-1.65-.26-2.75.81-3.94,1.64-2.36,1.08-4.72,2.16-7.08,3.24-3.52.49-7,.55-10.91-1.52.65,2.87,0,5.12,1.18,7.19,0,0,.01-.07.01-.07-2.32,3.17-4.63,6.33-6.95,9.5-5.17,5.99-11.68,10.73-16.13,17.38-2.88,2.47-3.66,6.46-6.74,9.69-.66-3.97-2.3-7.04-1.97-10.55.57-.33,1.14-.65,1.7-.98-.19,1.66.11,3.36,1.64,4.07,1.35.62,1.69-.84,1.99-1.88,2.15-2.67,4.31-5.33,6.43-8.01,5.14-6.5,11.71-11.99,14.35-20.26,2.17-3.6,1.01-7.22.06-10.83.68.33,1.37.67,2.05,1,.44,1.01,1.29,1.39,2.29,1.72,4.82,1.6,9.25-.18,13.59-1.74,7.06-2.54,12.97-8.29,21.29-7.39,1.67.18,2.3-1.1,1.41-2.73.69-2.21-1.34-3.33-2.01-4.99.28-.19.58-.3.92-.32.42.12.84.24,1.26.36Z"/><path class="cls-10" d="M41.47,167.4c.2,18.58,2.99,36.84,6.86,54.97,1.07,5.01,2.38,9.97,3.57,14.96-.49-.02-.97-.03-1.46-.05-7.21-22.2-10.21-45.12-11.45-68.32-.49-9.09-.93-18.2-.24-27.31.51.14,1.02.27,1.53.41.21,4.07.42,8.13.63,12.2-.42,4.41-.16,8.79.56,13.14Z"/><path class="cls-7" d="M40.91,154.25c-.21-4.07-.42-8.13-.63-12.2.27-3.58,1.18-7.17-.24-10.71-.9-1.4-1.71-2.81-.8-4.53,4.79-2.44,4.2-6.72,3.76-10.95,0,0,0,.01,0,.01,2.95-3.27,2.35-7.77,4.04-11.54,1.62-3.61,3.54-6.95,5.98-10.2-6.16,20.06-8.65,40.62-9.91,61.37-1.03.11-1.58-.62-2.19-1.26Z"/><path class="cls-10" d="M93.92,188.63c2.16-9.03,7.17-16.71,11.92-24.46,3.89-6.35,8.4-12.32,12.56-18.5.27-.39-.08-1.2-.14-1.81,2.84-1.21,4.18-4.03,6.34-5.96.32-.36.64-.72.95-1.08l1.81-1.97c.91-.27,1.63-.72,1.71-1.79,1.75-1.86,3.5-3.72,5.25-5.58,1.22-.26,2.43-.52,3.65-.78-.65.57-1.3,1.14-1.94,1.72-.28.4-.57.79-.85,1.19-.7.63-1.41,1.26-2.11,1.89-.23.36-.47.73-.7,1.09-15.63,16.62-27.45,35.72-36.91,56.38-.51-.11-1.03-.23-1.54-.34Z"/><path class="cls-11" d="M265.74,38.98c6.3,4.81,6.85,10.82,1.35,14.81-.84.46-1.67.91-2.51,1.37-.92-2.08.03-4.7-1.88-6.5-.18-.41-.36-.81-.54-1.22,1.54-4.23-.17-6.37-4.42-6.81-4.79-.49-9.6-.82-14.37-1.46-1.31-.18-3.79.32-3.15-2.57,1.29-.4,2.59-.8,3.88-1.21,7.21,1.19,14.42,2.39,21.64,3.58Z"/><path class="cls-13" d="M45.48,96.2c1.24,3.37-.95,6-2.04,8.82-.73,1.89-1.85,1.28-2.92-.03-1.2-1.48-1.59-3.79-4-4.1-.16-.18-.27-.38-.32-.61-.6-.89-1.19-1.78-1.79-2.67.52-2.5-1.24-4.13-2.73-5.38-2.47-2.08-5.39-3.61-8.12-5.36,8.8-.39,16.24,2.41,21.91,9.35Z"/><path class="cls-7" d="M84.5,253.61c2.51,6.62,2.14,13.49,1.83,20.37-1.39,2.98.5,5.67.76,8.5-1.11,5.48,1.63,10.65,1.28,16.07-.97-.73-1.94-1.46-2.91-2.19-.25-.51-.5-1.02-.75-1.53,1.1-.82,1.03-1.96.82-3.11-.67-3.69-1.63-7.35-1.93-11.06-.22-2.7-2.37-5.62.38-8.21.3-.36,1.12-.5.6-1.18-.09-.12-.75.19-1.15.31-2.28-6.1-.68-12.15.21-18.2.31.02.6.1.87.25Z"/><path class="cls-15" d="M128.05,300.41c.67,1.66,2.7,2.78,2.01,4.99,0,0,0-.01,0-.01-.58-1.07-1.43-1.39-2.56-.9l-.28.27c-3.15-5.65-9.04-7.47-14.29-10.13-6.32-3.21-13.37-4.85-19.33-8.86,2.13-1.92,4.4,1.98,6.52-.16,0,0,0,0,0,0,.37.85.98,1.29,1.94,1.11,0,0-.02,0-.02,0,.46.09.92.19,1.38.28,0,0,.01,0,.01,0,.56.23,1.11.45,1.67.68,0,0,0,0,0,0,.3.18.6.36.89.55.07-.25.14-.49.21-.74,2.83,1.92,6.63,1.97,9.05,4.69.42.51.89.8,1.52.36,0,0-.08-.02-.08-.02.51.67.81,1.7,2.01,1.13l-.06-.02c1.99,2.36,4.14,4.45,7.53,4.43.61.78,1.23,1.56,1.84,2.34Z"/><path class="cls-10" d="M264.59,55.16c.84-.46,1.67-.91,2.51-1.37-1.78,3.94-5.62,5.25-9.14,6.67-9.07,3.68-18.59,5.77-28.26,7.15.41-.66.81-1.32,1.22-1.98,1.44-1.4,4.37-.09,5.08-2.8.7-.12,1.39-.23,2.09-.35,4.03,1.66,7.36-.16,10.66-2.15,2.01-.56,4.01-1.11,6.02-1.67.48-.12.95-.24,1.43-.37,2.8-1.05,5.6-2.09,8.4-3.14Z"/><path class="cls-8" d="M83.74,41.65c13.36-9.59,26.63-19.32,41.17-27.14.06,3.95-3.92,3.81-5.84,5.74-.45.16-.9.32-1.35.49-.59.35-1.19.71-1.78,1.06-10,5.86-19.29,12.76-28.69,19.52l-5.63,2.79c.17-1.28,1.26-1.77,2.12-2.46Z"/><path class="cls-10" d="M193.77,3.28c-.28-.22-.57-.25-.89-.1-1.75-.14-4.42-1.48-3.12,2.38-.12-.97-.83-.72-1.44-.7-.18-2.35-.18-2.36-2.72-2.57-6.96-.57-13.84.55-20.75,1.03.1-.58.2-1.15.31-1.73,12.47-2.46,24.83-2.19,37.04,1.55.02.53.05,1.06.07,1.59-1.98-.34-3.97-.67-5.95-1.01-.85-.15-1.69-.3-2.54-.45Z"/><path class="cls-14" d="M34.42,97.6c.6.89,1.19,1.78,1.79,2.67-1.32.44-2.26-.28-3.05-1.13-7.33-7.97-16.56-8.57-26.41-6.93-2.17.36-4.92,1.97-6.27-.65-1.34-2.6.37-4.94,2.58-6.65.03.46.24,1.03.05,1.38-2.29,4.17-.86,5.06,3.21,3.73,10.53-1.76,20.24-.52,28.1,7.58Z"/><path class="cls-17" d="M165.16,1.6c-.1.58-.2,1.15-.31,1.73-.56.26-1.11.52-1.67.78-1.41-.36-2.62-.04-3.61,1.05-2.81-.36-5.34.53-7.81,1.71,0,0,.07.11.07.11-.37-.56-.82-.36-1.27-.12-.34.15-.67.29-1.01.44-1.31.44-2.63.89-3.94,1.33-1.72.47-3.44.93-5.16,1.41-3.96,1.11-7.25,4.16-11.65,3.97,10.95-7.56,23.48-10.48,36.35-12.42Z"/><path class="cls-2" d="M128.81,14.02c4.4.18,7.7-2.86,11.65-3.97,1.72-.48,3.44-.94,5.16-1.41.38.56.77,1.13,1.15,1.69-10.68,4.23-21.49,8.16-31.52,13.87.23-.8.46-1.59.68-2.39.59-.35,1.19-.71,1.78-1.06.45-.16.9-.32,1.35-.49,1.93-1.94,5.9-1.79,5.84-5.74,1.18-1.15,2.35-2.29,3.91-.49Z"/><path class="cls-2" d="M64.24,304.92c.18,6.6-1.12,13.06-1.72,19.59-.11,1.16-.03,2.9-2.17,2.41-2.56-2.39-1.09-5.65-.69-7.93.87-4.96.63-10.08,2.12-14.93.66.74,1.38,1.3,2.45.86Z"/><path class="cls-17" d="M93.92,188.63c.51.11,1.03.23,1.54.34-2.24,7.07-4.48,14.14-6.72,21.21-.71-.15-1.43-.31-2.15-.46.09-2.23.17-4.46.26-6.69,2.17-1.49.69-4.3,2.19-6.03,3.03-1.97,2.64-5.93,4.86-8.37Z"/><path class="cls-17" d="M63.26,352.45c-.33,3.52,1.31,6.59,1.97,10.55,3.08-3.23,3.86-7.22,6.74-9.69.26.38.52.76.78,1.14-2.69,4.45-5.34,8.92-7.17,15.2-2.78-9.6-5.47-17.82-5.29-26.63.54.93,1.09,1.86,1.64,2.79,0,0,.07.06.07.06.04.44.08.88.12,1.32.22,1.79.18,3.63,1.15,5.26Z"/><path class="cls-17" d="M86.71,222.51c-.51,8.82-1.01,17.65-1.52,26.47-.62.38-1.24.76-1.86,1.15.26-7.23.51-14.47.76-21.7.31-2.11.62-4.23.93-6.35.56.14,1.12.28,1.68.43Z"/><path class="cls-14" d="M83.74,41.65c-.86.69-1.95,1.18-2.12,2.46-6.19,4.61-13.54,6.16-20.82,7.88-.38-.41-.75-.81-1.13-1.22,8.02-3.04,16.04-6.08,24.06-9.12Z"/><path class="cls-17" d="M230.91,65.63c-.41.66-.81,1.32-1.22,1.98-7.07,1.29-14.17,2.24-21.35,2.62,1.71-2.37,5.7-1.09,6.89-4.3.7-.07,1.4-.14,2.1-.22,2.33,2.18,4.11.75,5.86-.88.24-.12.49-.18.75-.17,1.97,2.88,4.77-.26,6.96.97Z"/><path class="cls-6" d="M100.13,285.61c-2.12,2.14-4.39-1.75-6.52.16,0,0,.09-.37.09-.37-.73-.89-1.22-2.65-2.73-.76-1.3-.72-2.6-1.44-3.89-2.16-.26-2.83-2.15-5.52-.76-8.5.42.33.84.66,1.25.99.31.26.61.53.92.79,2.49,4.92,7.87,6.44,11.63,9.85Z"/><path class="cls-8" d="M72.75,354.45c-.26-.38-.52-.75-.78-1.14,4.45-6.65,10.96-11.4,16.13-17.38,1.24.53,2.01-.47,2.95-.9-5.3,7.22-12.27,12.87-18.3,19.42Z"/><path class="cls-17" d="M265.74,38.98c-7.21-1.19-14.42-2.39-21.64-3.58-.14-.27-.31-.52-.5-.75,5.82-.11,11.62.08,17.3,1.55,1.85.48,4.04.45,4.84,2.78Z"/><path class="cls-17" d="M202.27,4.74c-.02-.53-.05-1.06-.07-1.59,6.77,1.36,12.61,4.68,18.16,8.62.72.51,1.34.96.88,1.95-5.99-3.71-12.53-6.23-18.97-8.99Z"/><path class="cls-8" d="M124.07,311.69c3.19-2.64,7.5-1.71,11.26-3.42-1.23-2.05-2.38-3.97-3.53-5.88.17.01.39-.03.49.05,2.37,2.02,6.12,4.25,5.67,6.9-.42,2.5-4.86,1.34-7.49,1.79-4.51.77-8.5,2.72-12.53,4.64,2.04-1.37,4.09-2.73,6.13-4.1Z"/><path class="cls-2" d="M59.67,50.77c.38.41.75.81,1.13,1.22-.14.56-.28,1.12-.43,1.67-4.8,1.21-9.61,2.41-14.41,3.62-.07-.93.54-1.42,1.19-1.9,3.74-2.71,7.95-4.14,12.51-4.61Z"/><path class="cls-14" d="M163.63,103.78c.47.67.76,1.37.27,2.16-2.99-.67-4.2,1.97-6,3.36-3.77,2.91-7.37,6.05-11.03,9.09-.86-.09-1.71-.17-2.57-.26.42-.46.85-.91,1.27-1.36,1.1-.73,2.19-1.46,3.29-2.2,4.85-3.7,9.26-8,14.77-10.79Z"/><path class="cls-10" d="M86.71,222.51c-.56-.14-1.12-.28-1.68-.43.14-2.59.28-5.18.43-7.77.38-1.53.76-3.07,1.15-4.6.72.15,1.43.3,2.15.46-.68,4.11-1.36,8.22-2.04,12.33Z"/><path class="cls-13" d="M47.16,55.38c-.65.47-1.26.97-1.19,1.9-3.86,1.42-7.77,2.73-11.56,4.32-1.47.62-1.68-.1-2.01-1.09,4.56-2.75,9.13-5.45,14.76-5.12Z"/><path class="cls-8" d="M144.3,118.14c.86.09,1.71.17,2.57.26-2.96,2.77-5.93,5.54-8.89,8.31-1.22.26-2.43.52-3.64.78,1.79-2.67,4.19-4.69,6.81-6.48.26-.31.53-.61.79-.92.79-.65,1.58-1.3,2.36-1.95Z"/><path class="cls-10" d="M124.07,311.69c-2.04,1.37-4.09,2.73-6.13,4.1-4.52,3.31-9.5,5.58-15.04,6.55.62-.5,1.25-1.01,1.87-1.51,2.36-1.08,4.72-2.16,7.08-3.24,1.76.52,2.75-.81,3.94-1.64,2.76-1.41,4.78-4.27,8.28-4.26Z"/><path class="cls-17" d="M104.77,320.83c-.62.5-1.25,1.01-1.87,1.51-.43.19-.95.63-1.29.53-3.5-1.09-5.32.73-6.57,3.64-1.17-2.07-.53-4.32-1.18-7.19,3.92,2.07,7.4,2.01,10.91,1.52Z"/><path class="cls-17" d="M50.44,237.28c.49.02.97.03,1.46.05,1.06,4.57,3.61,8.78,3.29,13.68-2.33-4.32-3.6-9-4.75-13.72Z"/><path class="cls-17" d="M91.05,335.03c-.94.43-1.71,1.43-2.95.9,2.32-3.17,4.63-6.33,6.95-9.5.84,3.88-2.04,6.03-4,8.6Z"/><path class="cls-8" d="M40.04,131.34c1.41,3.54.51,7.13.24,10.71-.51-.14-1.02-.27-1.53-.41.04-3.48-.9-7.09,1.29-10.3Z"/><path class="cls-15" d="M43,115.86c.44,4.23,1.03,8.51-3.76,10.95,2.21-3.32-.09-8.19,3.76-10.95Z"/><path class="cls-14" d="M126.21,298.07c-3.39.02-5.54-2.07-7.53-4.43,2.95.73,5.49,2.15,7.53,4.43Z"/><path class="cls-14" d="M238.86,32.94c-2.58-1.05-7.18-.72-3.92-5.75,1.31,1.92,2.61,3.83,3.92,5.75Z"/><path class="cls-7" d="M83.33,250.13c.62-.38,1.24-.76,1.86-1.15.72,1.29.81,2.5-.44,3.55-.32-.03-.63-.1-.93-.21-.16-.73-.33-1.46-.49-2.19Z"/><path class="cls-14" d="M243.61,34.65c.19.23.36.48.5.75-1.29.4-2.59.8-3.88,1.21-.17-.19-.35-.39-.53-.57.11-.5.22-.99.32-1.49.28-.07.55-.18.8-.33.93.15,1.86.29,2.79.44Z"/><path class="cls-17" d="M83.82,252.32c.3.11.61.18.93.21-.55.25-.63.61-.25,1.08-.27-.15-.56-.23-.87-.25.06-.35.13-.69.2-1.04Z"/><path class="cls-6" d="M102.08,286.73c-.96.18-1.57-.26-1.94-1.11,1.11-.43,1.67.08,1.94,1.11Z"/><path class="cls-14" d="M118.74,293.66c-1.2.58-1.51-.45-2.01-1.13.88,0,1.59.32,2.01,1.13Z"/><path class="cls-11" d="M240.83,34.21c-.25.15-.52.27-.8.33-.3-.61-.59-1.21-.89-1.82.56.5,1.13.99,1.69,1.49Z"/><path class="cls-6" d="M103.45,287.01c-.46-.09-.92-.19-1.38-.28.61-.65,1.01-.26,1.38.28Z"/><path class="cls-6" d="M105.13,287.69c-.56-.23-1.11-.45-1.67-.68.82-.42,1.33-.07,1.67.68Z"/><path class="cls-6" d="M106.23,287.5c-.07.25-.14.49-.21.74-.3-.18-.6-.36-.89-.55.37-.06.74-.13,1.11-.19Z"/><path class="cls-8" d="M135.18,129.61c.28-.4.57-.79.85-1.19-.28.4-.57.79-.85,1.19Z"/><path class="cls-14" d="M116.81,292.55c-.64.44-1.11.15-1.52-.36.51.12,1.02.24,1.52.36Z"/><path class="cls-2" d="M59.23,332.32c.13.31.25.62.38.93-.77-.04-.88-.36-.38-.93Z"/><path class="cls-8" d="M132.37,132.59c.23-.36.46-.73.7-1.09-.23.36-.47.73-.7,1.09Z"/><path class="cls-15" d="M130.23,300.45c-.42-.12-.84-.24-1.26-.36.42.12.84.24,1.26.36Z"/><path class="cls-7" d="M88.5,275.76c-.31-.26-.61-.53-.92-.79.31.26.61.53.92.79Z"/><path class="cls-5" d="M45.48,96.2c-5.67-6.94-13.11-9.74-21.91-9.35-5.82-1.53-11.37-.33-16.84,1.69-.98-1.37-.33-2.6.51-3.62,9.33-11.33,20.32-20.1,35.24-22.85,2.2-.41,4.41-.25,6.35.33,3.71,1.1,6.54,3.11,5.08,7.96-1.66,5.51-1.46,11.53-4.62,16.64-.56.91-.2,1.93.34,2.82,0,0,0-.03,0-.02-.68.48-1.22,1.04-1.11,1.97,1.23,3.03-1.84,3.09-3.05,4.43Z"/><path class="cls-7" d="M60.38,53.66c.14-.56.28-1.11.43-1.67,7.28-1.72,14.63-3.27,20.82-7.88,1.88-.93,3.75-1.86,5.63-2.78.15.43.3.86.45,1.28-5.23,4.74-10.47,9.47-15.7,14.21.02-3.39-1.62-4.55-4.92-3.9-2.2.43-4.46.51-6.69.75Z"/><path class="cls-7" d="M115.47,28.22c10.34-5.87,20.89-11.17,32.78-13.08,1.11-.18,2.48-.59,3.01.84.37.99-.65,1.42-1.43,1.59-11.75,2.59-22.97,6.88-34.36,10.65Z"/><path class="cls-11" d="M163.19,4.11c.56-.26,1.11-.52,1.67-.78,6.91-.48,13.79-1.6,20.75-1.03,2.54.21,2.53.22,2.72,2.57-8.09,1.02-16.29-.57-24.38.96-1.14.22-1.09-.87-.75-1.72Z"/><path class="cls-7" d="M177.12,11.76c2.52-1.47,10.52-.36,11.73,1.56.46.72.24,1.14-.28,1.64-1.4,1.35-10.42,1.27-12.01-.14-1.48-1.32-.75-2.25.56-3.06Z"/><path class="cls-13" d="M87.69,42.61c-.15-.43-.3-.85-.45-1.28,9.39-6.76,18.69-13.66,28.69-19.52-.23.8-.46,1.59-.68,2.39-10.43,4.28-18.07,12.73-27.55,18.42Z"/><path class="cls-2" d="M40.91,154.25c.6.64,1.15,1.37,2.19,1.26,1.25,3.36.13,6.78.29,10.17.07,1.4-.97,1.48-1.92,1.71-.72-4.36-.98-8.74-.56-13.14Z"/><path class="cls-7" d="M168.3,12.5c.66,1.64-.63,2.12-1.57,2.58-2.13,1.05-4.55,1.56-6.5.05-1.46-1.13.26-1.98,1.13-2.46,2.26-1.23,4.61-1.51,6.94-.17Z"/><path class="cls-7" d="M59.78,81.68c.84-5.54,3.19-10.14,8.39-12.94-2.8,4.31-5.59,8.63-8.39,12.94Z"/><path class="cls-11" d="M151.77,6.87c2.47-1.18,5-2.07,7.81-1.71-2.11,2.82-4.44,4.64-7.81,1.71Z"/><path class="cls-11" d="M146.77,10.32c-.38-.56-.77-1.13-1.15-1.69,1.31-.44,2.63-.89,3.94-1.33,1.57,3.32-1.91,1.97-2.79,3.02Z"/><path class="cls-11" d="M189.76,5.56c-1.31-3.86,1.36-2.52,3.12-2.38-.03.18-.06.36-.09.54-.09.44-.17.87-.26,1.31,0,0-.04.14-.04.14-.91.13-1.82.26-2.72.4Z"/><path class="cls-6" d="M48.54,91.77c-.11-.93.43-1.49,1.11-1.97.08.91-.44,1.49-1.11,1.97Z"/><path class="cls-7" d="M71.32,57.35c.21-.23.44-.43.7-.61.08.56-.05.88-.7.61Z"/><path class="cls-11" d="M150.57,6.86c.45-.25.89-.44,1.27.12-.42-.04-.84-.08-1.27-.12Z"/><path class="cls-11" d="M83.82,252.32c-.07.35-.13.69-.2,1.04-.89,6.06-2.5,12.11-.21,18.2.18.29.36.58.55.87-2.74,2.59-.6,5.52-.38,8.21.3,3.71,1.27,7.37,1.93,11.06.21,1.15.28,2.29-.82,3.11-15.08-38.5-23.66-78.21-21.39-119.77,1.59-29.14,7.35-57.28,25.05-81.38,20.25-27.57,45.14-49.48,78.19-60.73,5.96-.35,11.79-2.7,17.88-1.22-1.13,1.5-2.7,1.47-4.41,1.62-9.24.77-16.41,7.44-18.51,15.19-1.87,1.44-3.75,2.87-5.62,4.31,5.84-.31,11.45-1.34,16.9.29,12.96,3.87,26.18,5.62,39.67,5.64-3.19,2.77-7.14,2.45-10.9,2.44-11.6-.03-23.21-.6-34.79-.32-11.3.27-22.62,1.23-30.73,10.86-3.59.35-6.9,1.19-10.29,2.84-5.62,2.74-10.43,6.39-15.05,10.41-11.85,10.3-20.06,22.82-23.22,38.39-5.03,16.27-8.2,32.85-7.13,49.93.64,10.17,1.39,20.45,6.52,29.7-.09,2.23-.17,4.46-.26,6.69-.38,1.53-.76,3.07-1.15,4.6-.29-.05-.58-.1-.87-.14-.36-.91-.79-1.81-1.06-2.74-.29-.97-.52-2.06-1.76-1.99-1.13.06-1.58,1.04-1.84,2.04-2.89,11.08-2.54,22.06,1.01,32.95,0,.16.02.31.03.47-.02-.16-.03-.32-.05-.47,1.13-2,.23-4.18.59-6.25.58-3.29-.88-6.93,1.71-9.86.29.06.58.1.88.12-.26,7.23-.51,14.47-.77,21.7.16.73.33,1.46.49,2.19Z"/><path class="cls-4" d="M166.55,32.94c-33.04,11.26-57.94,33.17-78.19,60.73-17.7,24.1-23.46,52.23-25.05,81.38-2.27,41.56,6.31,81.27,21.39,119.77.25.51.5,1.02.75,1.53.25,1.15.5,2.3.75,3.45-1.61.72-2.22-.47-2.89-1.53-6.49-15.94-13.5-31.65-19.06-47.98-9.04-26.53-13.79-53.76-13.52-81.72.23-23.27,4.08-45.88,14.71-67.03,7.58-15.1,18.03-27.55,30.93-38.37,15.01-12.58,31.69-21.66,50.58-26.7,5.59-1.49,11.29-2.61,16.91-3.98,1.04-.25,1.92-.49,2.69.46Z"/><path class="cls-12" d="M89.44,314.54c.96,3.62,2.11,7.23-.06,10.83-2.36-7.81-9.62-11.91-14.28-19.41-.17,2.92-.3,4.83-.39,6.73-.4,8.62-1.03,17.23-4.18,25.36-1.69,4.36-2.28,8.93-3.24,13.44-.4-.43-.8-.86-1.2-1.3.04-1.64-.13-3.31.15-4.91,2.37-13.33,3.19-26.8,3.73-40.3.06-1.56.9-3.33-.86-4.57.69-5.63,2.79-11.1,1.89-16.9.4-.28.81-.56,1.21-.84.43.91.86,1.82,1.28,2.73.08.31.23.59.44.83,2.55,4.33,5.11,8.65,7.66,12.98,2.61,5.11,5.22,10.22,7.83,15.33Z"/><path class="cls-7" d="M161.5,48.53c2.11-7.76,9.27-14.42,18.51-15.19,1.7-.14,3.28-.11,4.41-1.62.19-.11.4-.18.62-.19,2.2,3.83,6.35,2.38,9.5,3.11,5.18,1.2,10.55,2.54,16.04,1.16.99-.25,1.78.71,2.41,1.52-3.07.73-6.14,1.46-9.21,2.19-2-.26-3.98-.17-5.93.38,0,0,.02,0,.02,0-1.97-.44-3.93-.45-5.88.08-1.71.41-5.02-2.57-4.67,2.21-.99.97.05,3.75-2.76,3.09.53-1.18.68-2.33-.21-3.42-.46-2.16-2.21-2.52-3.98-2.87-.18-.23-.39-.28-.65-.13-3.62-.34-6.32.68-6.97,4.72.08.73.15,1.47.23,2.2-2.69-1.62-5.22-1.63-7.73.49-1.11.93-2.49,1.53-3.75,2.28Z"/><path class="cls-15" d="M69.11,300.42c1.75,1.24.92,3.01.86,4.57-.53,13.5-1.36,26.97-3.73,40.3-.28,1.59-.11,3.27-.15,4.91-.38.42-.75.85-1.13,1.27-.57.33-1.14.66-1.7.98-.97-1.63-.93-3.47-1.15-5.26-.04-.44-.08-.88-.12-1.32,0,0-.06-.06-.07-.06,2.7-4.11,1.84-8.88,2.04-13.3.47-10.33,3-20.34,3.93-30.58.05-.53.79-1,1.21-1.51Z"/><path class="cls-3" d="M89.44,314.54c-2.61-5.11-5.22-10.22-7.83-15.33.57-.31,1.14-.63,1.7-.94.68,1.06,1.28,2.25,2.89,1.53.6.92.12,2.82,2.19,2.41,1.26,3.14,2.51,6.28,3.77,9.41,1.34,1.58,1.12,2.88-.67,3.92-.68-.33-1.37-.67-2.05-1Z"/><path class="cls-17" d="M72.22,282.67c-.4.28-.81.56-1.21.84-1.56-2.04-2.01-4.32-1.89-7.42,2.36,2.11,2.52,4.44,3.1,6.58Z"/><path class="cls-17" d="M73.94,286.23c-.21-.24-.36-.52-.44-.83.19.15.4.29.55.47.04.05-.07.24-.11.36Z"/><path class="cls-13" d="M136.04,71.75c8.11-9.64,19.43-10.59,30.73-10.86,11.59-.28,23.19.28,34.79.32,3.76.01,7.71.33,10.89-2.43,1.38-.65,3.21.07,4.31-1.43,0,0-.04-.01-.04-.01.36.92.73,1.82,1.5.24,6.48-.35,12.96-.69,19.44-1.04,1.87-.1,3.47-.82,4.85-2.07l-.05-.03c2.19,1.63,3.71.02,5.33-1.09h-.09c.98.61,1.75.11,2.52-.46.72-.4,1.45-.81,2.17-1.21,3.74.06,6.96-1.71,10.31-3.01,1.91,1.79.96,4.42,1.88,6.49-2.8,1.05-5.6,2.09-8.4,3.14-.48.12-.95.24-1.43.36-2.01.56-4.01,1.11-6.02,1.67-3.7.01-7.34.26-10.66,2.15-.7.12-1.39.23-2.09.35-4.18-.51-8.21,0-12.04,1.83-.27-.01-.52.04-.75.17-2.08-.55-4.04-.35-5.86.88-.7.07-1.4.14-2.1.22-7.72.82-15.47,1.38-23.13,2.58-3.51.55-5.6,4.02-8.11,6.32-15.3,14.01-31.02,27.45-48.75,38.34-.67.41-1.37.78-2.58,1.47,1.22-9.35,2.49-18.13,3.45-26.94.52-4.74,1.27-9.59-1.03-14.17.57-.45,1.15-.91.95-1.77Z"/><path class="cls-6" d="M136.04,71.75c.19.87-.38,1.32-.95,1.77-1.66.79-.77,3.24-2.58,3.94-4.53,1.5-6.43,5.03-6.31,11.71v-.11c-.08.5-1.13.63-.55,1.39.23.74.46,1.49.69,2.23-2.17,5.36-4.34,10.71-6.51,16.07-2.41-.58-2.57,1.59-3.25,2.86-2.32,4.36-2.8,9.28-3.93,14.01-4.18,4.12-5.97,9.68-8.87,14.58-.17.89-.34,1.79-.51,2.68-.31.21-.61.42-.92.63-2.48,4.53-7.08,6.9-10.61,10.37-1.24,1.22-2.72,3.32-4.51,2.13-2.18-1.45-.53-3.4.41-5.17,4.17-7.86,6.63-16.19,6.39-25.17-.07-2.86-.86-4.76-4.22-2.65-.62.39-1.56.26-2.35.37,3.16-15.57,11.37-28.08,23.22-38.39,4.63-4.02,9.44-7.67,15.05-10.41,3.39-1.65,6.69-2.49,10.29-2.84Z"/><path class="cls-13" d="M87.47,123.39c.79-.11,1.73.02,2.35-.37,3.36-2.11,4.14-.21,4.22,2.65.23,8.98-2.22,17.31-6.39,25.17-.94,1.77-2.59,3.72-.41,5.17,1.79,1.19,3.27-.91,4.51-2.13,3.53-3.47,8.13-5.84,10.61-10.37,2.47,2.15,1.12,4.57.41,6.88-4.43,14.26-8.91,28.5-13.33,42.77-.38,1.22-1.09,2.48-.38,3.84-1.5,1.73-.03,4.54-2.19,6.03-5.13-9.25-5.88-19.53-6.52-29.7-1.07-17.08,2.11-33.67,7.13-49.93Z"/><path class="cls-12" d="M119.83,108.76c2.17-5.36,4.34-10.71,6.51-16.07.51-.36,1.03-.72,1.54-1.08-1.63,9.03-5.66,17.3-8.25,26.03-1.7,5.74-3.61,11.34-7.14,16.34-2.54,3.61-5.35,6.75-9.22,8.9.17-.89.34-1.79.51-2.68,5.55-3.95,8.67-9.56,10.84-15.82,1.73-5.21,3.47-10.42,5.2-15.63Z"/><path class="cls-13" d="M141.14,121c-2.62,1.79-5.02,3.81-6.81,6.48-1.75,1.86-3.5,3.72-5.25,5.58-.84.34-1.47.88-1.71,1.79-.6.66-1.2,1.31-1.81,1.96-.32.36-.64.72-.95,1.08-2.17,1.93-3.5,4.75-6.34,5.96,4.25-9.13,11.19-16.01,18.73-22.38,2.01-1.7,4.08-3.33,6.12-4.99.82.09,1.64.19,2.46.28-.42.45-.85.91-1.27,1.36-.79.65-1.58,1.3-2.36,1.95-.26.31-.53.61-.79.92Z"/><path class="cls-2" d="M126.2,89.18c-.12-6.69,1.79-10.22,6.31-11.71-.44,1.11-.89,2.22-1.33,3.33-2.16,2.5-2,6.38-4.98,8.39Z"/><path class="cls-17" d="M126.2,89.18c2.99-2.01,2.82-5.89,4.98-8.39,2.37,1.55.23,2.98-.21,4.36-.64,2.01-1.6,3.92-2.42,5.87-.65-.26-.83.02-.71.63,0,0,.04-.04.04-.04-.51.36-1.03.72-1.54,1.08-.23-.75-.46-1.49-.69-2.23.18-.46.36-.92.55-1.39v.11Z"/><path class="cls-6" d="M145.57,116.77c-.82-.09-1.64-.19-2.46-.28,1.87-.77,2.86-4.22,5.75-1.91-1.1.73-2.2,1.46-3.29,2.2Z"/><path class="cls-12" d="M127.84,91.65c-.12-.61.06-.89.71-.63-.2.26-.43.47-.71.63Z"/><path class="cls-2" d="M6.73,88.55c5.47-2.02,11.01-3.22,16.84-1.69,2.73,1.76,5.66,3.29,8.12,5.37,1.49,1.25,3.24,2.88,2.73,5.38-7.86-8.11-17.58-9.34-28.1-7.58.14-.49.28-.98.42-1.47Z"/><path class="cls-2" d="M193.77,3.28c.85.15,1.69.3,2.54.45-.97.57-1.83.49-2.54-.45Z"/><path class="cls-2" d="M192.53,5.03c.09-.44.17-.87.26-1.31-.09.44-.17.87-.26,1.31Z"/><path class="cls-6" d="M239.7,36.03c.18.19.35.38.53.57-.64,2.89,1.84,2.39,3.15,2.57,4.77.64,9.58.98,14.37,1.46,4.26.43,5.97,2.58,4.42,6.81-3.15.88-6.29,1.75-9.44,2.63-8.35.57-16.61,1.75-24.77,3.6,0,0,.05-.16.05-.16-3.89-1.27-7.87-.97-11.85-.69-3.68-.79-7.32-1.87-11.05-2.3-3.31-.38-6.17-3.06-9.75-1.77h.03c-.32-.54-.64-1.08-.96-1.63l2.3-1.65c13.23,2.49,26.15,3.1,37.61-5.87,1.68-1.32,3.56-2.39,5.34-3.58Z"/><path class="cls-3" d="M196.75,45.48c-.77.55-1.53,1.1-2.3,1.65-1-.48-2.44-1.22-2.94-.07-.7,1.59,1.09,1.48,2.05,1.72.58.14,1.23,0,1.85,0,0,0-.03-.01-.03-.01,3.16,1.7,6.32,3.4,9.49,5.1,1.21.82,2.44,1.44,3.86.44h-.05c.37.64.81.84,1.41.25h.02c.32.77.77.91,1.37.27,0,0,.03,0,.03,0,.98,2.17,2.94,1.68,4.69,1.72.19.27.39.54.58.81-1.1,1.49-2.93.78-4.31,1.43-13.49-.02-26.71-1.76-39.67-5.64-5.45-1.63-11.06-.6-16.9-.29,1.87-1.44,3.75-2.87,5.62-4.31,1.26-.75,2.64-1.35,3.75-2.28,2.51-2.11,5.04-2.11,7.73-.49,3.99,2.9,7.85,2.7,11.58-.5,2.81.66,1.77-2.12,2.76-3.09.77,1.02,1.41,2.34,3.06,1.47,1.51-.79,1.91-2.09,1.61-3.68,1.95-.53,3.92-.52,5.88-.08-2.52,1.43-2.16,3.44-1.12,5.59Z"/><path class="cls-3" d="M197.85,39.88c1.95-.55,3.93-.64,5.93-.38-1.92.99-3.71,4.1-5.93.38Z"/><path class="cls-16" d="M91.49,315.54c1.79-1.04,2.01-2.35.67-3.93.17-.8.47-1.59.51-2.39.69-13.19,2-14.02,14.75-11.74,7.11,1.27,12.86,5.82,19.8,7.28,0,0,.28-.27.28-.27.46,1.43,1.38,1.55,2.56.9,0,0,0,.01,0,.01.9,1.63.26,2.91-1.41,2.73-8.32-.9-14.23,4.85-21.29,7.39-4.34,1.56-8.77,3.34-13.59,1.74-1-.33-1.85-.71-2.29-1.72Z"/><path class="cls-16" d="M67.29,351.49c.97-4.5,1.55-9.07,3.24-13.44,3.16-8.13,3.79-16.74,4.18-25.36.09-1.91.22-3.81.39-6.73,4.65,7.5,11.91,11.61,14.28,19.41-2.63,8.28-9.21,13.76-14.35,20.26-2.12,2.69-4.29,5.34-6.43,8.01-.44-.72-.87-1.44-1.31-2.16Z"/><path class="cls-17" d="M67.29,351.49c.44.72.87,1.44,1.31,2.16-.3,1.04-.64,2.5-1.99,1.88-1.53-.71-1.83-2.41-1.64-4.07.38-.42.75-.85,1.13-1.27.4.43.8.86,1.2,1.3Z"/><path class="cls-17" d="M115.79,315.95c-1.19.84-2.18,2.16-3.94,1.64,1.19-.83,2.29-1.9,3.94-1.64Z"/><path class="cls-8" d="M127.36,134.85c.24-.91.87-1.45,1.71-1.79-.08,1.07-.8,1.51-1.71,1.79Z"/><path class="cls-8" d="M124.6,137.89c.32-.36.64-.72.95-1.08-.32.36-.64.72-.95,1.08Z"/><path class="cls-3" d="M252.73,50.08c3.15-.88,6.29-1.75,9.44-2.63.18.4.36.81.54,1.22-3.35,1.3-6.56,3.07-10.31,3.01.11-.53.22-1.07.33-1.6Z"/><path class="cls-12" d="M127.22,304.76c-6.94-1.46-12.69-6.01-19.8-7.28-12.75-2.28-14.06-1.45-14.75,11.74-.04.8-.33,1.59-.51,2.39-1.26-3.14-2.51-6.27-3.77-9.41.97-1.23.87-2.45-.04-3.66.35-5.42-2.39-10.59-1.28-16.07,1.3.72,2.6,1.44,3.89,2.16.75.84,1.44,1.87,2.73.76,0,0-.09.37-.09.37,5.96,4.01,13,5.66,19.33,8.86,5.24,2.66,11.14,4.48,14.29,10.13Z"/><path class="cls-11" d="M88.36,298.54c.91,1.21,1.01,2.43.04,3.66-2.07.42-1.59-1.49-2.19-2.41-.25-1.15-.5-2.3-.75-3.45.97.73,1.94,1.46,2.91,2.19Z"/><path class="cls-1" d="M83.96,272.43c-.18-.29-.36-.58-.55-.87.4-.11,1.06-.43,1.15-.31.51.68-.3.82-.6,1.18Z"/><path class="cls-6" d="M130.06,305.39c-1.19.65-2.1.53-2.56-.9,1.13-.49,1.98-.17,2.56.9Z"/><path class="cls-3" d="M223.95,64.66c3.83-1.82,7.86-2.34,12.04-1.83-.71,2.71-3.64,1.4-5.08,2.8-2.19-1.23-5,1.91-6.96-.97Z"/><path class="cls-3" d="M238.08,62.49c3.32-1.89,6.96-2.14,10.66-2.15-3.3,1.99-6.62,3.82-10.66,2.15Z"/><path class="cls-3" d="M254.76,58.67c.48-.12.95-.24,1.43-.36-.48.12-.95.24-1.43.36Z"/><path class="cls-13" d="M119.06,20.25c-.45.16-.9.32-1.35.49.45-.16.9-.32,1.35-.49Z"/><path class="cls-6" d="M61.99,345.87c.04.44.08.88.12,1.32-.04-.44-.08-.88-.12-1.32Z"/><path class="cls-11" d="M85.45,214.31c-.14,2.59-.28,5.18-.43,7.77-.31,2.12-.62,4.23-.93,6.35-.29-.02-.59-.06-.88-.12-2.41-4.99-.95-9.6,1.37-14.14.29.04.58.09.87.14Z"/><path class="cls-3" d="M217.34,65.71c1.81-1.23,3.78-1.43,5.86-.88-1.75,1.63-3.53,3.07-5.86.88Z"/><path class="cls-15" d="M93.7,285.4c-1.29,1.11-1.98.07-2.73-.76,1.51-1.88,2-.13,2.73.76Z"/><path class="cls-14" d="M141.14,121c.26-.31.53-.62.79-.92-.26.31-.53.62-.79.92Z"/><path class="cls-1" d="M84.59,214.17c-2.31,4.53-3.77,9.15-1.37,14.14-2.6,2.93-1.14,6.58-1.72,9.86-.36,2.06.54,4.25-.59,6.25h.02c-3.55-10.88-3.9-21.86-1.01-32.94.26-1,.7-1.98,1.84-2.04,1.24-.06,1.47,1.02,1.76,1.99.28.94.7,1.83,1.06,2.74Z"/><path class="cls-1" d="M80.91,244.42c.02.16.03.32.05.47,0-.16-.02-.31-.03-.47,0,0-.02,0-.02,0Z"/><path class="cls-10" d="M184.56,45.26c-3.73,3.19-7.59,3.39-11.58.5-.08-.73-.15-1.47-.23-2.2.27-.2.54-.4.81-.6,2.74,1.52,5.43-.25,8.15-.1.88-.34,1.76-.68,2.64-1.03.89,1.09.74,2.25.21,3.43Z"/><path class="cls-15" d="M181.71,42.86c-2.72-.15-5.41,1.62-8.15.1,2.06-1.38,4.11-2.75,6.17-4.13.25-.15.47-.11.65.13.42,1.31,1.92,2.25,1.34,3.9Z"/><path class="cls-4" d="M191.99,39.97c.3,1.59-.1,2.89-1.61,3.68-1.65.86-2.29-.45-3.06-1.47-.35-4.78,2.96-1.8,4.67-2.21Z"/><path class="cls-3" d="M179.73,38.84c-2.06,1.38-4.11,2.75-6.17,4.13-.27.2-.54.4-.81.6.66-4.04,3.35-5.07,6.97-4.72Z"/><path class="cls-3" d="M181.71,42.86c.58-1.65-.92-2.59-1.34-3.9,1.76.35,3.52.72,3.97,2.87-.88.34-1.76.68-2.64,1.03Z"/><path class="cls-14" d="M252.73,50.08c-.11.53-.22,1.07-.33,1.6-.72.4-1.45.81-2.17,1.21-.94-.43-1.74-.07-2.52.45,0,0,.09.01.09.01-1.9-.22-3.7.01-5.33,1.09,0,0,.05.03.05.03-3.39-.6-6.69.54-10.04.48-1.54-.03-3.63,1.27-4.52-1.27,8.16-1.85,16.42-3.04,24.77-3.6Z"/><path class="cls-2" d="M227.96,53.68c.89,2.54,2.97,1.24,4.52,1.27,3.35.06,6.65-1.08,10.04-.48-1.38,1.25-2.99,1.97-4.85,2.07-6.48.35-12.96.69-19.44,1.04-.5-.08-1-.16-1.5-.24,0,0,.04.01.04.01-.19-.27-.39-.54-.58-.81.55-.4,1.1-.81,1.65-1.21,2.46.02,4.94.21,7.38-.02.98-.1,3.35,1.05,2.79-1.78l-.05.16Z"/><path class="cls-2" d="M242.47,54.44c1.63-1.08,3.44-1.31,5.33-1.09-1.62,1.12-3.15,2.72-5.33,1.09Z"/><path class="cls-2" d="M247.71,53.34c.77-.53,1.57-.88,2.52-.45-.76.57-1.54,1.08-2.52.45Z"/><path class="cls-3" d="M216.73,57.34c.5.08,1,.16,1.5.24-.77,1.58-1.13.68-1.5-.24Z"/><path class="cls-2" d="M119.83,108.76c-1.73,5.21-3.47,10.42-5.2,15.63-.66.41-1.32.83-1.98,1.24,1.13-4.72,1.61-9.64,3.93-14.01.68-1.27.83-3.44,3.25-2.86Z"/><path class="cls-13" d="M112.66,125.62c.66-.41,1.32-.83,1.98-1.24-2.17,6.26-5.3,11.87-10.84,15.82,2.89-4.9,4.69-10.46,8.87-14.58Z"/><path class="cls-2" d="M126.19,89.07c-.18.46-.36.92-.55,1.39-.57-.76.47-.88.55-1.39Z"/><path class="cls-10" d="M204.86,53.86c-3.16-1.7-6.32-3.4-9.49-5.1,3.57-1.29,6.44,1.39,9.75,1.77,3.72.43,7.37,1.5,11.05,2.3.36.66,1.84.71,1.06,1.98-1.91.46-3.82-1.2-5.73,0,0,0-.03,0-.03,0-.34-.68-.8-.77-1.37-.27,0,0-.02,0-.02,0-.36-.66-.83-.73-1.41-.26,0,0,.05.01.05.01-1.18-1.11-2.43-1.58-3.86-.44Z"/><path class="cls-8" d="M217.22,54.81c.78-1.27-.69-1.32-1.06-1.98,3.98-.28,7.96-.59,11.85.69.56,2.83-1.81,1.69-2.79,1.78-2.44.24-4.92.05-7.38.02-.2-.18-.4-.35-.62-.51Z"/><path class="cls-10" d="M195.4,48.77c-.62.01-1.27.15-1.85,0-.95-.24-2.74-.13-2.05-1.72.5-1.15,1.94-.41,2.94.07.32.55.64,1.09.96,1.64Z"/><path class="cls-15" d="M217.22,54.81c.21.16.42.34.62.51-.55.4-1.1.81-1.65,1.21-1.76-.05-3.71.45-4.69-1.72,1.91-1.2,3.82.45,5.73,0Z"/><path class="cls-15" d="M204.86,53.86c1.43-1.14,2.68-.67,3.86.44-1.42,1.01-2.65.38-3.86-.44Z"/><path class="cls-15" d="M210.09,54.55c.57-.5,1.03-.41,1.37.27-.6.64-1.05.5-1.37-.27Z"/><path class="cls-15" d="M208.67,54.29c.57-.47,1.04-.4,1.41.26-.59.59-1.04.39-1.41-.26Z"/><text class="cls-21" transform="translate(166.55 173.07) scale(.83 1)"><tspan x="0" y="0">&lt;/&gt;</tspan></text><text class="cls-20" transform="translate(91.9 222.51) scale(.56 1)"><tspan class="cls-22" x="0" y="0">C</tspan><tspan x="28.2" y="0">ODE DEVE</tspan><tspan class="cls-18" x="253.62" y="0">L</tspan><tspan class="cls-19" x="278.44" y="0">OPER</tspan></text></svg>